<svg xmlns="http://www.w3.org/2000/svg" viewBox="0 0 73 73">
  <defs>
    <style>
      .cls-1 {
        fill: #f8f8f8;
      }
    </style>
  </defs>
  <g id="artificial-intelligence" transform="translate(-6 4)">
    <g id="Group_70" data-name="Group 70" transform="translate(6 -4)">
      <g id="Group_69" data-name="Group 69">
        <path id="Path_51" data-name="Path 51" class="cls-1" d="M10.258,249.733V237.194l2.712-1.807h4.353v-2.355H12.256l-4.353,2.9v13.8a3.532,3.532,0,1,0,2.355,0Zm-1.177,4.493a1.177,1.177,0,1,1,1.177-1.177A1.178,1.178,0,0,1,9.081,254.226Z" transform="translate(-4.371 -183.581)"/>
        <path id="Path_52" data-name="Path 52" class="cls-1" d="M6.848,204.452h6.1V202.1h-6.1a3.532,3.532,0,1,0,0,2.355Zm-4.493-1.177a1.177,1.177,0,1,1,1.177,1.177A1.178,1.178,0,0,1,2.355,203.274Z" transform="translate(0 -157.355)"/>
        <path id="Path_53" data-name="Path 53" class="cls-1" d="M3.532,162.419a3.527,3.527,0,0,0,3.316-2.355h6.1V157.71h-6.1a3.526,3.526,0,1,0-3.316,4.71Zm0-4.71a1.177,1.177,0,1,1-1.177,1.177A1.178,1.178,0,0,1,3.532,157.71Z" transform="translate(0 -122.387)"/>
        <rect id="Rectangle_23" data-name="Rectangle 23" class="cls-1" width="4.71" height="2.355" transform="translate(8.242 40.032)"/>
        <rect id="Rectangle_24" data-name="Rectangle 24" class="cls-1" width="4.71" height="2.355" transform="translate(8.242 30.613)"/>
        <rect id="Rectangle_25" data-name="Rectangle 25" class="cls-1" width="12.952" height="2.355" transform="translate(0 25.903)"/>
        <path id="Path_54" data-name="Path 54" class="cls-1" d="M17.674,58.516h4.02V56.161H18.649l-2.842-2.842V51.235a3.532,3.532,0,1,0-2.355,0v3.059ZM14.629,46.742a1.177,1.177,0,1,1-1.177,1.177A1.178,1.178,0,0,1,14.629,46.742Z" transform="translate(-8.742 -34.968)"/>
        <path id="Path_55" data-name="Path 55" class="cls-1" d="M21.194,27.391v3.045h2.355v-4.02l-4.222-4.222H0v2.355H18.351Z" transform="translate(0 -17.484)"/>
        <path id="Path_56" data-name="Path 56" class="cls-1" d="M25.9,5.2v7.754h2.355V4.222L24.036,0H0V2.355H23.061Z"/>
        <rect id="Rectangle_26" data-name="Rectangle 26" class="cls-1" width="2.355" height="4.71" transform="translate(30.613 8.242)"/>
        <rect id="Rectangle_27" data-name="Rectangle 27" class="cls-1" width="2.355" height="12.952" transform="translate(44.742)"/>
        <path id="Path_57" data-name="Path 57" class="cls-1" d="M157.71,6.848v6.1h2.355V8.729l2.355,2.355v1.867h2.355V10.109L161.005,6.34a3.529,3.529,0,1,0-3.3.507Zm1.177-4.493a1.177,1.177,0,1,1-1.177,1.177A1.178,1.178,0,0,1,158.887,2.355Z" transform="translate(-122.387)"/>
        <path id="Path_58" data-name="Path 58" class="cls-1" d="M235.387,7.552l2.842-2.842h11.5a3.529,3.529,0,0,0,2.138,2.138V23.061L249.029,25.9h-5.4v2.355H250l4.222-4.222V6.848a3.524,3.524,0,1,0-4.493-4.493H237.254l-4.222,4.222v6.375h2.355Zm17.661-5.2a1.177,1.177,0,1,1-1.177,1.177A1.178,1.178,0,0,1,253.048,2.355Z" transform="translate(-183.581)"/>
        <path id="Path_59" data-name="Path 59" class="cls-1" d="M262.008,49.3l2.637,2.637v1.38L261.8,56.161h-.69v2.355h1.665L267,54.294v-3.33l-4.222-4.222h-.7a3.514,3.514,0,1,0-.066,2.56Zm-3.25-.2a1.177,1.177,0,1,1,1.177-1.177A1.178,1.178,0,0,1,258.758,49.1Z" transform="translate(-201.065 -34.968)"/>
        <rect id="Rectangle_28" data-name="Rectangle 28" class="cls-1" width="12.952" height="2.355" transform="translate(60.048 30.613)"/>
        <path id="Path_60" data-name="Path 60" class="cls-1" d="M293.564,197.281V170.674l-4.222-4.222h-6.375v2.355h5.4l2.842,2.842v6.09l-1.867-1.867h-6.375v2.355h5.4l2.842,2.842v16.213a3.532,3.532,0,1,0,2.355,0Zm-1.177,4.493a1.177,1.177,0,1,1,1.177-1.177A1.178,1.178,0,0,1,292.387,201.774Z" transform="translate(-222.919 -131.129)"/>
        <rect id="Rectangle_29" data-name="Rectangle 29" class="cls-1" width="4.71" height="2.355" transform="translate(60.048 40.032)"/>
        <path id="Path_61" data-name="Path 61" class="cls-1" d="M249.516,237.254l-4.222-4.222h-1.665v2.355h.69l2.842,2.842v6.577H235.387v-1.177h-2.355v3.532h14.129v1.867l-2.842,2.842h-2.084a3.532,3.532,0,1,0,0,2.355h3.059L249.516,250Zm-10.6,16.971a1.177,1.177,0,1,1,1.177-1.177A1.178,1.178,0,0,1,238.919,254.226Z" transform="translate(-183.581 -183.581)"/>
        <path id="Path_62" data-name="Path 62" class="cls-1" d="M54.145,278.6H51.79v1.177h-6.1a3.532,3.532,0,1,0,0,2.355h8.459Zm-11.774,3.532a1.177,1.177,0,1,1,1.177-1.177A1.178,1.178,0,0,1,42.371,282.129Z" transform="translate(-30.597 -218.548)"/>
        <rect id="Rectangle_30" data-name="Rectangle 30" class="cls-1" width="2.355" height="12.952" transform="translate(44.742 60.048)"/>
        <rect id="Rectangle_31" data-name="Rectangle 31" class="cls-1" width="2.355" height="12.952" transform="translate(40.032 60.048)"/>
        <path id="Path_63" data-name="Path 63" class="cls-1" d="M140.226,284.835l-2.355,2.355v-4.222h-2.355v6.1a3.537,3.537,0,1,0,3.3.507l3.769-3.769v-2.842h-2.355Zm-3.532,8.729a1.177,1.177,0,1,1,1.177-1.177A1.178,1.178,0,0,1,136.694,293.564Z" transform="translate(-104.903 -222.919)"/>
        <path id="Path_64" data-name="Path 64" class="cls-1" d="M111.306,282.968h-2.355v3.045l-3.532,3.532v6.375h2.355v-5.4l3.532-3.532Z" transform="translate(-83.048 -222.919)"/>
        <path id="Path_65" data-name="Path 65" class="cls-1" d="M106.274,114.516h2.355v-2.355h3.532v-3.532h2.355v-2.355h-2.355v-2.355h2.355v-2.355h-2.355V99.21h2.355V96.855h-2.355V94.5h2.355V92.145h-2.355V89.79h2.355V87.435h-2.355V85.081h2.355V82.726h-2.355V80.371h2.355V78.016h-2.355V74.484h-3.532V72.129h-2.355v2.355h-2.355V72.129h-2.355v2.355H99.21V72.129H96.855v2.355H94.5V72.129H92.145v2.355H89.79V72.129H87.435v2.355H85.081V72.129H82.726v2.355H80.371V72.129H78.016v2.355h-.487l-3.045,3.045v.487H72.129v2.355h2.355v2.355H72.129v2.355h2.355v2.355H72.129V89.79h2.355v2.355H72.129V94.5h2.355v2.355H72.129V99.21h2.355v2.355H72.129v2.355h2.355v2.355H72.129v2.355h2.355v3.532h3.532v2.355h2.355v-2.355h2.355v2.355h2.355v-2.355h2.355v2.355H89.79v-2.355h2.355v2.355H94.5v-2.355h2.355v2.355H99.21v-2.355h2.355v2.355h2.355v-2.355h2.355Zm-29.435-4.71V78.5L78.5,76.839h31.3v32.968Z" transform="translate(-56.823 -56.823)"/>
        <path id="Path_66" data-name="Path 66" class="cls-1" d="M129.982,114.11l2.055-2.055-4.995-4.995-2.055,2.055a11.608,11.608,0,0,0-1.906-.792v-2.9h-7.065v2.9a11.522,11.522,0,0,0-1.906.792l-2.055-2.055-4.995,4.995,2.055,2.055a11.711,11.711,0,0,0-.792,1.906h-2.9v7.065h2.9a11.523,11.523,0,0,0,.792,1.906l-2.055,2.055,4.995,4.995,2.055-2.055a11.667,11.667,0,0,0,1.906.792v2.9h7.065v-2.9a11.521,11.521,0,0,0,1.906-.792l2.055,2.055,4.995-4.995-2.055-2.055a11.624,11.624,0,0,0,.792-1.906h2.9v-7.065h-2.9A11.52,11.52,0,0,0,129.982,114.11Zm1.341,6.616h-2.388l-.208.916a9.378,9.378,0,0,1-1.209,2.913l-.5.8,1.692,1.692-1.665,1.665-1.692-1.692-.8.5a9.377,9.377,0,0,1-2.913,1.209l-.916.208v2.388h-2.355v-2.388l-.916-.208a9.378,9.378,0,0,1-2.913-1.209l-.8-.5-1.692,1.692-1.665-1.665,1.692-1.692-.5-.8a9.377,9.377,0,0,1-1.209-2.913l-.208-.916h-2.388v-2.355h2.388l.208-.916a9.377,9.377,0,0,1,1.209-2.913l.5-.8-1.692-1.692,1.665-1.665,1.692,1.691.8-.5a9.377,9.377,0,0,1,2.913-1.209l.916-.207v-2.388h2.355v2.388l.916.208a9.377,9.377,0,0,1,2.913,1.209l.8.5,1.692-1.691,1.665,1.665-1.692,1.692.5.8a9.377,9.377,0,0,1,1.209,2.913l.208.915h2.388Z" transform="translate(-83.048 -83.048)"/>
        <path id="Path_67" data-name="Path 67" class="cls-1" d="M150.145,144.258a5.887,5.887,0,1,0,5.887,5.887A5.894,5.894,0,0,0,150.145,144.258Zm0,9.419a3.532,3.532,0,1,1,3.532-3.532A3.537,3.537,0,0,1,150.145,153.677Z" transform="translate(-113.645 -113.645)"/>
      </g>
    </g>
  </g>
</svg>
