<svg xmlns="http://www.w3.org/2000/svg" xmlns:xlink="http://www.w3.org/1999/xlink" viewBox="0 0 72 76.008">
  <defs>
    <style>
      .cls-1 {
        fill: url(#linear-gradient);
      }
    </style>
    <linearGradient id="linear-gradient" x1="0.5" x2="0.5" y2="1" gradientUnits="objectBoundingBox">
      <stop offset="0" stop-color="#0d87c4"/>
      <stop offset="1" stop-color="#0d4081"/>
    </linearGradient>
  </defs>
  <g id="business" transform="translate(-13.5)">
    <g id="Group_2" data-name="Group 2" transform="translate(37.253)">
      <g id="Group_1" data-name="Group 1">
        <path id="Path_4" data-name="Path 4" class="cls-1" d="M203.606.327A1.12,1.12,0,0,0,202.82,0H174.613A1.115,1.115,0,0,0,173.5,1.113V6.137a1.113,1.113,0,1,0,2.227,0V2.227h25.979V23.754H187.974a1.116,1.116,0,0,0-.413.08l-5.9,2.356V24.867a1.115,1.115,0,0,0-1.113-1.113h-4.825V10.591a1.113,1.113,0,0,0-2.227,0V24.867a1.113,1.113,0,0,0,1.113,1.113h4.825v1.854a1.112,1.112,0,0,0,1.113,1.113,1.09,1.09,0,0,0,.413-.08l7.224-2.887H202.82a1.113,1.113,0,0,0,1.113-1.113V1.113A1.115,1.115,0,0,0,203.606.327Z" transform="translate(-173.5)"/>
      </g>
    </g>
    <g id="Group_4" data-name="Group 4" transform="translate(50.613 29.236)">
      <g id="Group_3" data-name="Group 3">
        <path id="Path_5" data-name="Path 5" class="cls-1" d="M292.819,231.093h-3.34v-2.465a12.957,12.957,0,0,0,4.452-9.778v-4.272c.87-4.376.471-7.621-1.188-9.645a5.561,5.561,0,0,0-3.266-1.944v-4.928a1.113,1.113,0,0,0-1.113-1.113c-.423,0-.855,0-1.3,0-.461,0-.93,0-1.4,0-5.371,0-11.4.34-14.984,4.4-2.577,2.919-3.469,7.229-2.728,13.177v4.336a12.957,12.957,0,0,0,4.454,9.78v2.463h-3.34a5.573,5.573,0,0,0-5.567,5.567V242.6a1.113,1.113,0,0,0,1.113,1.113h32.66a1.113,1.113,0,0,0,1.113-1.113v-5.932s0,0,0-.006A5.573,5.573,0,0,0,292.819,231.093ZM272.351,202.81c2.969-3.363,8.429-3.645,13.315-3.645.471,0,.936,0,1.393,0h.194V204a1.1,1.1,0,0,0,1.172,1.112,3.417,3.417,0,0,1,2.6,1.233,6.512,6.512,0,0,1,1.131,4.194l-.484-.968a1.113,1.113,0,0,0-1.334-.563c-.066.021-6.663,2.109-10.469,2.109a15.368,15.368,0,0,1-6.985-2,1.113,1.113,0,0,0-1.471.282l-1.469,1.959C269.852,207.6,270.659,204.727,272.351,202.81Zm-2.171,16.039v-4.1l2.438-3.25a17.014,17.014,0,0,0,7.249,1.84c3.3,0,8.207-1.339,10.231-1.936l1.608,3.215v4.226a10.763,10.763,0,0,1-21.526,0ZM287.253,230.2v1.414l-3.419,2.28L282.057,233v-1.215A12.9,12.9,0,0,0,287.253,230.2Zm-7.424,1.591v1.15l-2.408.963-2.788-2.229V230.2A12.9,12.9,0,0,0,279.83,231.787Zm-4.454,9.7h-5.2v-2.227h5.2Zm20.783-4.824v4.824H277.6v-3.34a1.113,1.113,0,0,0-1.113-1.113h-7.422a1.113,1.113,0,0,0-1.113,1.113v3.34h-2.227V236.66a3.344,3.344,0,0,1,3.34-3.34h4.063l3.407,2.725c.01.008.021.013.031.021a1.163,1.163,0,0,0,.1.065c.02.012.04.024.061.034s.065.03.1.043.044.018.066.026a1.111,1.111,0,0,0,.112.028c.019,0,.037.01.056.013a1.1,1.1,0,0,0,.175.015,1.149,1.149,0,0,0,.117-.007l.021,0c.031,0,.061-.009.092-.015l.037-.009c.024-.006.048-.012.072-.02l.046-.016.029-.01,3.246-1.3,2.524,1.261c.017.009.035.015.052.022s.04.018.06.026.056.018.084.026l.04.012a1.13,1.13,0,0,0,.119.022l.01,0a1.123,1.123,0,0,0,.132.008,1.111,1.111,0,0,0,.156-.011c.022,0,.045-.009.067-.014s.057-.011.085-.019.045-.016.067-.024.055-.019.082-.031.039-.02.058-.03.058-.03.085-.048l.018-.01,4.171-2.781h4.117a3.344,3.344,0,0,1,3.34,3.336S296.16,236.659,296.16,236.66Z" transform="translate(-263.5 -196.939)"/>
      </g>
    </g>
    <g id="Group_6" data-name="Group 6" transform="translate(13.5 29.585)">
      <g id="Group_5" data-name="Group 5">
        <path id="Path_6" data-name="Path 6" class="cls-1" d="M42.819,233.09H38v-1.344a12.985,12.985,0,0,0,5.937-10.9v-2.454l1.481.529a1.113,1.113,0,0,0,1.488-1.049c0-6.682-1.286-11.644-3.824-14.747a10.464,10.464,0,0,0-8.516-3.842,22.206,22.206,0,0,0-9.438,2.5l-2.609-1.242a1.113,1.113,0,0,0-1.036.042c-.447.258-4.333,2.814-3.525,12.881v7.385a12.985,12.985,0,0,0,5.938,10.9v1.343H19.067a5.573,5.573,0,0,0-5.567,5.567V244.6a1.113,1.113,0,0,0,1.113,1.113H47.273a1.113,1.113,0,0,0,1.113-1.113v-5.932s0,0,0-.006A5.573,5.573,0,0,0,42.819,233.09Zm-20.6-30.227,2.458,1.17a1.115,1.115,0,0,0,1.033-.04,20.618,20.618,0,0,1,8.854-2.482c6.375,0,9.765,4.969,10.088,14.773L25.38,209.4a1.114,1.114,0,0,0-.872.053l-4.424,2.212C19.921,206.089,21.464,203.694,22.217,202.864ZM20.18,220.847v-6.739l4.9-2.449L41.706,217.6v3.249a10.763,10.763,0,0,1-21.526,0ZM35.769,232.9v1.3h0a4.825,4.825,0,0,1-9.649,0v-1.3a12.989,12.989,0,0,0,9.65,0Zm10.391,5.754v4.824H15.727v-4.824a3.344,3.344,0,0,1,3.34-3.34h4.914a7.051,7.051,0,0,0,13.926,0H42.82a3.344,3.344,0,0,1,3.34,3.337S46.159,238.656,46.159,238.657Z" transform="translate(-13.5 -199.285)"/>
      </g>
    </g>
    <g id="Group_8" data-name="Group 8" transform="translate(47.644 4.452)">
      <g id="Group_7" data-name="Group 7">
        <path id="Path_7" data-name="Path 7" class="cls-1" d="M251.736,31.4a4.825,4.825,0,0,0-8.236,3.411,1.113,1.113,0,0,0,2.227,0v0a2.6,2.6,0,1,1,2.612,2.6h-.014a1.115,1.115,0,0,0-1.113,1.115V41.5a1.113,1.113,0,1,0,2.227,0V39.51h0a4.825,4.825,0,0,0,2.3-8.107Z" transform="translate(-243.5 -29.99)"/>
      </g>
    </g>
    <g id="Group_10" data-name="Group 10" transform="translate(51.356 17.814)">
      <g id="Group_9" data-name="Group 9">
        <path id="Path_8" data-name="Path 8" class="cls-1" d="M269.613,120a1.114,1.114,0,0,0-1.113,1.113V122.6a1.113,1.113,0,0,0,2.227,0v-1.483A1.115,1.115,0,0,0,269.613,120Z" transform="translate(-268.5 -120)"/>
      </g>
    </g>
  </g>
</svg>
