<svg xmlns="http://www.w3.org/2000/svg" xmlns:xlink="http://www.w3.org/1999/xlink" viewBox="0 0 54 51.297">
  <defs>
    <style>
      .cls-1 {
        fill: url(#linear-gradient);
      }
    </style>
    <linearGradient id="linear-gradient" x1="0.5" x2="0.5" y2="1" gradientUnits="objectBoundingBox">
      <stop offset="0" stop-color="#0d87c4"/>
      <stop offset="1" stop-color="#0d4081"/>
    </linearGradient>
  </defs>
  <g id="contact" transform="translate(-0.001 -12.813)">
    <g id="Group_160" data-name="Group 160" transform="translate(0.001 12.813)">
      <g id="Group_159" data-name="Group 159" transform="translate(0 0)">
        <path id="Path_122" data-name="Path 122" class="cls-1" d="M51.705,12.813H13.986a2.3,2.3,0,0,0-2.3,2.3v10.4L9.966,22.925a2.667,2.667,0,0,0-3.6-.81L2.816,24.249A5.207,5.207,0,0,0,.438,27.334C-.857,32.047.1,40.168,12.024,52.09c9.479,9.469,16.547,12.02,21.418,12.02a12.577,12.577,0,0,0,3.34-.436A5.216,5.216,0,0,0,39.868,61.3L42,57.746a2.667,2.667,0,0,0-.81-3.6l-8.5-5.664a2.682,2.682,0,0,0-3.59.582l-2.474,3.18a.861.861,0,0,1-1.1.233l-.471-.259c-1.549-.844-3.478-1.9-7.372-5.79-.421-.421-.8-.816-1.161-1.193H51.705A2.294,2.294,0,0,0,54,42.954V15.109A2.3,2.3,0,0,0,51.705,12.813ZM24.193,53.8l.457.251a2.652,2.652,0,0,0,3.4-.7l2.474-3.18a.875.875,0,0,1,1.17-.19l8.5,5.664a.87.87,0,0,1,.264,1.17L38.323,60.37a3.421,3.421,0,0,1-2.017,1.566c-4.255,1.17-11.7.18-23.006-11.124S1.01,32.062,2.177,27.81a3.421,3.421,0,0,1,1.565-2.017l3.552-2.132a.87.87,0,0,1,1.17.264l5.667,8.5a.874.874,0,0,1-.19,1.17L10.76,36.067a2.651,2.651,0,0,0-.7,3.4l.252.457c.9,1.651,2.019,3.705,6.1,7.783S22.543,52.9,24.193,53.8ZM52.2,42.954a.491.491,0,0,1-.5.486H14.9a22.7,22.7,0,0,1-3-4.379l-.259-.473a.859.859,0,0,1,.232-1.1l3.181-2.475a2.681,2.681,0,0,0,.582-3.59l-2.139-3.21V15.109a.49.49,0,0,1,.5-.5H51.705a.49.49,0,0,1,.5.5V42.954Z" transform="translate(-0.001 -12.813)"/>
        <path id="Path_123" data-name="Path 123" class="cls-1" d="M181.271,50.771l-15.045,11.41a1.214,1.214,0,0,1-1.428,0l-15.04-11.41a.9.9,0,1,0-1.088,1.435l15.042,11.409a3.03,3.03,0,0,0,3.6,0l15.046-11.409a.9.9,0,0,0-1.088-1.435Z" transform="translate(-132.667 -46.603)"/>
        <path id="Path_124" data-name="Path 124" class="cls-1" d="M158.273,172.662l-9.222,9.875a.9.9,0,1,0,1.317,1.228l9.222-9.88a.9.9,0,0,0-1.317-1.224Z" transform="translate(-133.111 -155.574)"/>
        <path id="Path_125" data-name="Path 125" class="cls-1" d="M371.51,172.365a.9.9,0,1,0-1.317,1.228l9.219,9.875a.9.9,0,0,0,1.317-1.228Z" transform="translate(-330.924 -155.277)"/>
      </g>
    </g>
  </g>
</svg>
