<svg id="contact-green" xmlns="http://www.w3.org/2000/svg" xmlns:xlink="http://www.w3.org/1999/xlink" viewBox="0 0 49 46.547">
  <defs>
    <style>
      .cls-1 {
        fill: url(#linear-gradient);
      }
    </style>
    <linearGradient id="linear-gradient" x1="0.5" x2="0.5" y2="1" gradientUnits="objectBoundingBox">
      <stop offset="0" stop-color="#b8be00"/>
      <stop offset="1" stop-color="#647c2b"/>
    </linearGradient>
  </defs>
  <path id="Path_35" data-name="Path 35" class="cls-1" d="M46.918,12.813H12.691A2.085,2.085,0,0,0,10.608,14.9v9.441L9.043,21.989a2.42,2.42,0,0,0-3.267-.735L2.556,23.19A4.725,4.725,0,0,0,.4,25.989c-1.175,4.277-.3,11.646,10.513,22.464,8.6,8.593,15.015,10.907,19.435,10.907a11.413,11.413,0,0,0,3.031-.4,4.733,4.733,0,0,0,2.8-2.156l1.933-3.223a2.42,2.42,0,0,0-.735-3.263l-7.71-5.14a2.434,2.434,0,0,0-3.258.529L24.162,48.6a.782.782,0,0,1-1,.212l-.427-.235a25.68,25.68,0,0,1-6.689-5.254c-.382-.382-.729-.74-1.054-1.082H46.918A2.081,2.081,0,0,0,49,40.163V14.9A2.085,2.085,0,0,0,46.918,12.813ZM21.953,50.008l.415.228a2.406,2.406,0,0,0,3.084-.636L27.7,46.714a.794.794,0,0,1,1.062-.172l7.71,5.14a.789.789,0,0,1,.239,1.062l-1.933,3.223a3.1,3.1,0,0,1-1.831,1.421c-3.861,1.062-10.619.163-20.876-10.094S.916,30.279,1.976,26.421A3.1,3.1,0,0,1,3.4,24.591l3.223-1.934a.79.79,0,0,1,1.062.239l5.142,7.71a.793.793,0,0,1-.172,1.062L9.764,33.914A2.406,2.406,0,0,0,9.129,37l.229.415c.817,1.5,1.832,3.362,5.533,7.063A27.134,27.134,0,0,0,21.953,50.008Zm25.415-9.844a.446.446,0,0,1-.449.441h-33.4a20.6,20.6,0,0,1-2.726-3.973l-.235-.429a.779.779,0,0,1,.211-1l2.887-2.246a2.433,2.433,0,0,0,.529-3.258l-1.941-2.913V14.9a.444.444,0,0,1,.449-.449H46.918a.444.444,0,0,1,.449.449V40.163Z" transform="translate(-0.001 -12.813)"/>
  <path id="Path_36" data-name="Path 36" class="cls-1" d="M178.22,50.754,164.567,61.108a1.1,1.1,0,0,1-1.3,0L149.625,50.754a.817.817,0,1,0-.988,1.3l13.649,10.353a2.749,2.749,0,0,0,3.267,0l13.653-10.353a.817.817,0,0,0-.987-1.3Z" transform="translate(-134.116 -46.972)"/>
  <path id="Path_37" data-name="Path 37" class="cls-1" d="M157.4,172.639l-8.368,8.961a.817.817,0,1,0,1.2,1.114l8.368-8.965a.817.817,0,0,0-1.2-1.11Z" transform="translate(-134.565 -157.133)"/>
  <path id="Path_38" data-name="Path 38" class="cls-1" d="M371.366,172.338a.817.817,0,0,0-1.2,1.114l8.366,8.961a.817.817,0,0,0,1.2-1.114Z" transform="translate(-334.537 -156.832)"/>
</svg>
