<svg xmlns="http://www.w3.org/2000/svg" xmlns:xlink="http://www.w3.org/1999/xlink" viewBox="0 0 48 48.038">
  <defs>
    <style>
      .cls-1 {
        fill: url(#linear-gradient);
      }
    </style>
    <linearGradient id="linear-gradient" x1="0.5" x2="0.5" y2="1" gradientUnits="objectBoundingBox">
      <stop offset="0" stop-color="#0d87c4"/>
      <stop offset="1" stop-color="#0d4081"/>
    </linearGradient>
  </defs>
  <g id="contract" transform="translate(-0.194)">
    <g id="Group_162" data-name="Group 162" transform="translate(0.194)">
      <g id="Group_161" data-name="Group 161">
        <path id="Path_126" data-name="Path 126" class="cls-1" d="M46.121,10.335l-1.165-.364a3.688,3.688,0,0,0-.946-.146A3.13,3.13,0,0,0,41.1,11.937L40.444,13.9V12.373a.9.9,0,0,0-.291-.582L28.216.218A.786.786,0,0,0,27.706,0H4.343a.688.688,0,0,0-.728.728V2.984H.922a.688.688,0,0,0-.728.728v43.6a.688.688,0,0,0,.728.728H36.3a.688.688,0,0,0,.728-.728V45.054h2.693a.688.688,0,0,0,.728-.728V34.5l2.038-2.766.073-.218,5.459-17.4A2.9,2.9,0,0,0,46.121,10.335ZM28.434,2.475l9.535,9.171H28.434Zm7.133,44.107H1.65V4.44H3.615V44.326a.688.688,0,0,0,.728.728H35.567v1.528ZM39.061,43.6H5.07V1.456H26.979V12.373a.688.688,0,0,0,.728.728H39.061V18.56L35.64,29.332v.218l.146,9.244a.7.7,0,0,0,.51.655.691.691,0,0,0,.8-.291l1.965-2.62V43.6Zm-1.892-7.06L37.023,30.5l3.639,1.165ZM46.7,13.684,41.463,30.351l-4.222-1.383,5.241-16.595a1.582,1.582,0,0,1,1.965-1.019l1.165.364A1.539,1.539,0,0,1,46.7,13.684Z" transform="translate(-0.194)"/>
        <path id="Path_127" data-name="Path 127" class="cls-1" d="M95.039,52.551H105.52a.688.688,0,0,0,.728-.728V44.4a.688.688,0,0,0-.728-.728H95.039a.688.688,0,0,0-.728.728v7.424A.783.783,0,0,0,95.039,52.551Zm.728-7.424h9.025v5.968H95.767Z" transform="translate(-85.213 -39.449)"/>
        <path id="Path_128" data-name="Path 128" class="cls-1" d="M79.981,192.7h22.126a.728.728,0,0,0,0-1.456H79.981a.728.728,0,0,0,0,1.456Z" transform="translate(-71.611 -172.761)"/>
        <path id="Path_129" data-name="Path 129" class="cls-1" d="M79.981,247.669h22.126a.728.728,0,1,0,0-1.456H79.981a.728.728,0,1,0,0,1.456Z" transform="translate(-71.611 -222.412)"/>
        <path id="Path_130" data-name="Path 130" class="cls-1" d="M79.981,302.633h22.126a.728.728,0,1,0,0-1.456H79.981a.728.728,0,1,0,0,1.456Z" transform="translate(-71.611 -272.063)"/>
        <path id="Path_131" data-name="Path 131" class="cls-1" d="M102.762,356.87a.688.688,0,0,0-.728-.728H79.981a.728.728,0,1,0,0,1.456h22.126A.718.718,0,0,0,102.762,356.87Z" transform="translate(-71.611 -321.715)"/>
        <path id="Path_132" data-name="Path 132" class="cls-1" d="M237.794,411.106H226.8a.728.728,0,1,0,0,1.456h10.918a.688.688,0,0,0,.728-.728A.672.672,0,0,0,237.794,411.106Z" transform="translate(-204.241 -371.366)"/>
      </g>
    </g>
  </g>
</svg>
