<svg id="light-bulb" xmlns="http://www.w3.org/2000/svg" viewBox="0 0 79 90.646">
  <defs>
    <style>
      .cls-1 {
        fill: #f9f9f9;
      }
    </style>
  </defs>
  <path id="Path_24" data-name="Path 24" class="cls-1" d="M1.328,215.609a1.328,1.328,0,0,0,0,2.656h3.7a1.328,1.328,0,0,0,0-2.656Zm0,0" transform="translate(0 -177.437)"/>
  <path id="Path_25" data-name="Path 25" class="cls-1" d="M415.361,215.609h-3.7a1.328,1.328,0,0,0,0,2.656h3.7a1.328,1.328,0,0,0,0-2.656Zm0,0" transform="translate(-337.689 -177.437)"/>
  <path id="Path_26" data-name="Path 26" class="cls-1" d="M34.566,313.637a1.329,1.329,0,0,0-1.814-.486L29.55,315a1.328,1.328,0,0,0,1.328,2.3l3.2-1.849A1.328,1.328,0,0,0,34.566,313.637Zm0,0" transform="translate(-23.772 -257.564)"/>
  <path id="Path_27" data-name="Path 27" class="cls-1" d="M388.113,107.981l-3.2,1.849a1.328,1.328,0,0,0,1.329,2.3l3.2-1.849a1.328,1.328,0,0,0-1.328-2.3Zm0,0" transform="translate(-316.219 -88.717)"/>
  <path id="Path_28" data-name="Path 28" class="cls-1" d="M315.45,34.079l1.849-3.2A1.328,1.328,0,1,0,315,29.55l-1.849,3.2a1.328,1.328,0,0,0,2.3,1.328Zm0,0" transform="translate(-257.562 -23.771)"/>
  <path id="Path_29" data-name="Path 29" class="cls-1" d="M218.265,5.025v-3.7a1.328,1.328,0,0,0-2.656,0v3.7a1.328,1.328,0,0,0,2.656,0Zm0,0" transform="translate(-177.437 0)"/>
  <path id="Path_30" data-name="Path 30" class="cls-1" d="M109.83,34.079a1.328,1.328,0,0,0,2.3-1.328l-1.849-3.2a1.328,1.328,0,0,0-2.3,1.328Zm0,0" transform="translate(-88.718 -23.771)"/>
  <path id="Path_31" data-name="Path 31" class="cls-1" d="M388.113,317.3a1.328,1.328,0,0,0,1.328-2.3l-3.2-1.849a1.328,1.328,0,0,0-1.329,2.3Zm0,0" transform="translate(-316.219 -257.562)"/>
  <path id="Path_32" data-name="Path 32" class="cls-1" d="M34.079,109.83l-3.2-1.849a1.328,1.328,0,0,0-1.328,2.3l3.2,1.849a1.328,1.328,0,1,0,1.328-2.3Zm0,0" transform="translate(-23.771 -88.718)"/>
  <path id="Path_33" data-name="Path 33" class="cls-1" d="M233.771,64.777a1.328,1.328,0,0,0,1.165,1.472,26.065,26.065,0,0,1,22.881,22.63,1.328,1.328,0,0,0,1.315,1.16,1.426,1.426,0,0,0,.17-.011,1.328,1.328,0,0,0,1.149-1.486,28.842,28.842,0,0,0-25.208-24.931,1.329,1.329,0,0,0-1.473,1.165Zm0,0" transform="translate(-192.376 -52.342)"/>
  <path id="Path_34" data-name="Path 34" class="cls-1" d="M60.386,91.527A28.876,28.876,0,0,0,69.48,113.1a10.922,10.922,0,0,1,3.464,7.923v3.455a5.734,5.734,0,0,0,4.526,5.6v5.246a2.736,2.736,0,0,0,2.734,2.733h2.3v1.019a3.784,3.784,0,0,0,3.78,3.78h5.847a3.75,3.75,0,0,0,3.746-3.746v-1.053H98.2a2.718,2.718,0,0,0,2.714-2.714v-5.264a5.73,5.73,0,0,0,4.526-5.595v-3.459A10.918,10.918,0,0,1,108.9,113.1a28.757,28.757,0,0,0,8.963-18.2,1.328,1.328,0,1,0-2.643-.256,26.1,26.1,0,0,1-8.137,16.52,13.627,13.627,0,0,0-4.234,8.53H90.518v-3.241a4.072,4.072,0,0,0,.768-.36,21.888,21.888,0,0,0,0-37.461,4.045,4.045,0,0,0-4.191,0A21.856,21.856,0,0,0,76.549,98.522a1.332,1.332,0,0,0,.053.757A21.854,21.854,0,0,0,87.1,116.1a4.087,4.087,0,0,0,.767.36V119.7H75.533a13.632,13.632,0,0,0-4.235-8.531A26.155,26.155,0,0,1,86.349,66.089a1.328,1.328,0,0,0-.282-2.641A28.721,28.721,0,0,0,60.386,91.527Zm20.1-1.185,7.378,5.746v7.51l-8.676-5.507A19.3,19.3,0,0,1,80.485,90.343ZM99.2,98.059l-8.678,5.508V96.05l7.366-5.737A19.3,19.3,0,0,1,99.2,98.059ZM90.518,113.44v-6.727l8.253-5.239a19.044,19.044,0,0,1-8.253,11.966Zm6.2-25.582-6.2,4.825V81.289A19.174,19.174,0,0,1,96.714,87.858Zm-8.851-6.569V92.722l-6.212-4.838A19.174,19.174,0,0,1,87.863,81.289Zm-8.246,20.222,8.246,5.234v6.7A19.051,19.051,0,0,1,79.617,101.511Zm13.6,37.6a1.091,1.091,0,0,1-1.09,1.09H86.285a1.126,1.126,0,0,1-1.124-1.125v-1.019h8.061Zm5.033-3.767a.058.058,0,0,1-.058.058H80.2a.077.077,0,0,1-.077-.077V130.2H98.255v5.138Zm4.527-12.99v2.131a3.07,3.07,0,0,1-3.2,3.064H78.669a3.072,3.072,0,0,1-3.069-3.069v-2.127Zm0,0" transform="translate(-49.691 -52.209)"/>
</svg>
