<svg xmlns="http://www.w3.org/2000/svg" xmlns:xlink="http://www.w3.org/1999/xlink" viewBox="0 0 81.333 81.333">
  <defs>
    <style>
      .cls-1 {
        fill: url(#linear-gradient);
      }

      .cls-2 {
        fill: #f2ebdd;
      }
    </style>
    <linearGradient id="linear-gradient" x1="0.5" x2="0.5" y2="1.194" gradientUnits="objectBoundingBox">
      <stop offset="0" stop-color="#0d87c4"/>
      <stop offset="1" stop-color="#0d4788"/>
      <stop offset="1" stop-color="#0d4081"/>
    </linearGradient>
  </defs>
  <g id="wyksztalcenie" transform="translate(-625 -430)">
    <circle id="Ellipse_1" data-name="Ellipse 1" class="cls-1" cx="40.667" cy="40.667" r="40.667" transform="translate(625 430)"/>
    <g id="mortarboard" transform="translate(642.372 453.689)">
      <g id="Group_104" data-name="Group 104" transform="translate(0 0)">
        <g id="Group_103" data-name="Group 103" transform="translate(0 0)">
          <path id="Path_84" data-name="Path 84" class="cls-2" d="M343.071,443.749a.774.774,0,0,0-.941.565l-.776,3.106a.776.776,0,0,0,.565.942.753.753,0,0,0,.189.023.777.777,0,0,0,.752-.588l.776-3.106A.777.777,0,0,0,343.071,443.749Z" transform="translate(-310.271 -404.902)"/>
          <path id="Path_85" data-name="Path 85" class="cls-2" d="M23.294,156.713a.769.769,0,0,0,.3-.059l8.541-3.535a.777.777,0,0,0-.595-1.435L23.294,155.1l-21.741-9v-.258a.776.776,0,0,0-1.553,0v.776a.776.776,0,0,0,.48.717L23,156.654A.769.769,0,0,0,23.294,156.713Z" transform="translate(0 -133.419)"/>
          <path id="Path_86" data-name="Path 86" class="cls-2" d="M110.1,242.237a.775.775,0,0,0-1.04-.353,18.1,18.1,0,0,1-7.421,1.693v-6.966a.776.776,0,1,0-1.553,0v6.959c-9.642-.307-12.753-6.148-13.2-7.12v-5.274a.776.776,0,0,0-1.553,0v5.435a.785.785,0,0,0,.055.289c.135.336,3.44,8.252,15.475,8.252a19.956,19.956,0,0,0,8.885-1.876A.775.775,0,0,0,110.1,242.237Z" transform="translate(-77.57 -210.988)"/>
          <path id="Path_87" data-name="Path 87" class="cls-2" d="M376.243,452.266a.776.776,0,0,0-.776.776v2.329a.776.776,0,0,0,1.553,0v-2.329A.776.776,0,0,0,376.243,452.266Z" transform="translate(-341.302 -412.666)"/>
          <path id="Path_88" data-name="Path 88" class="cls-2" d="M45.812,28.715a.776.776,0,0,0-.776.776v.256l-9.318,3.835v-1.4l10.391-4.3a.777.777,0,0,0,0-1.435L23.591,17.126a.777.777,0,0,0-.593,0L.48,26.444a.776.776,0,0,0,0,1.435L23,37.2a.775.775,0,0,0,.593,0l8.142-3.369a.776.776,0,1,0-.593-1.434l-7.846,3.246L2.807,27.162l20.487-8.478,20.487,8.478-8.915,3.689-8.539-3.188a1.854,1.854,0,0,0,.072-.5c0-1.306-1.364-2.329-3.106-2.329s-3.106,1.023-3.106,2.329,1.364,2.329,3.106,2.329a3.753,3.753,0,0,0,2.01-.554l8.861,3.309v2.488h0V51.376a2.329,2.329,0,1,0,1.553,0V46.968a9.434,9.434,0,0,0,3.063-4.023.785.785,0,0,0,.043-.254V37.256a.776.776,0,1,0-1.553,0v5.292a7.943,7.943,0,0,1-1.553,2.346V35.262l10.39-4.276a.776.776,0,0,0,.481-.718v-.776A.776.776,0,0,0,45.812,28.715Zm-22.518-.777c-.948,0-1.553-.46-1.553-.776s.6-.776,1.553-.776,1.553.46,1.553.776S24.242,27.938,23.294,27.938Zm11.647,26.4a.776.776,0,1,1,.776-.776A.777.777,0,0,1,34.942,54.338Z" transform="translate(0 -17.068)"/>
          <path id="Path_89" data-name="Path 89" class="cls-2" d="M402.6,444.317a.776.776,0,0,0-1.506.377l.776,3.106a.777.777,0,0,0,.752.588.753.753,0,0,0,.189-.023.776.776,0,0,0,.565-.942Z" transform="translate(-364.571 -404.905)"/>
        </g>
      </g>
    </g>
  </g>
</svg>
