<svg xmlns="http://www.w3.org/2000/svg" viewBox="0 0 64.412 84.953">
  <defs>
    <style>
      .cls-1 {
        fill: #fff;
      }
    </style>
  </defs>
  <g id="medal" transform="translate(-41.588 0)">
    <g id="Group_72" data-name="Group 72" transform="translate(49.549 7.978)">
      <g id="Group_71" data-name="Group 71" transform="translate(0)">
        <path id="Path_68" data-name="Path 68" class="cls-1" d="M108.914,34.912A24.192,24.192,0,0,0,78.9,71.341,1.339,1.339,0,0,0,81.013,69.7,21.515,21.515,0,0,1,107.707,37.3a1.339,1.339,0,1,0,1.207-2.39Z" transform="translate(-73.825 -32.305)"/>
      </g>
    </g>
    <g id="Group_74" data-name="Group 74" transform="translate(58.381 20.542)">
      <g id="Group_73" data-name="Group 73">
        <path id="Path_69" data-name="Path 69" class="cls-1" d="M146.536,83.918a1.339,1.339,0,0,0-2.39,1.207,21.515,21.515,0,0,1-32.4,26.689,1.339,1.339,0,1,0-1.644,2.113,24.192,24.192,0,0,0,36.431-30.009Z" transform="translate(-109.589 -83.183)"/>
      </g>
    </g>
    <g id="Group_76" data-name="Group 76" transform="translate(87.507 13.706)">
      <g id="Group_75" data-name="Group 75" transform="translate(0)">
        <path id="Path_70" data-name="Path 70" class="cls-1" d="M231.892,57.973c-.332-.375-.68-.746-1.036-1.1s-.726-.7-1.1-1.036a1.339,1.339,0,0,0-1.773,2.006c.334.3.665.606.981.923s.627.647.923.981a1.339,1.339,0,0,0,2.006-1.773Z" transform="translate(-227.529 -55.5)"/>
      </g>
    </g>
    <g id="Group_78" data-name="Group 78" transform="translate(41.588 0)">
      <g id="Group_77" data-name="Group 77">
        <path id="Path_71" data-name="Path 71" class="cls-1" d="M105.33,34.58a4.543,4.543,0,0,0,0-4.748l-1.761-2.888a1.885,1.885,0,0,1-.252-1.273l.525-3.336a4.541,4.541,0,0,0-1.822-4.4l-2.73-1.985a1.885,1.885,0,0,1-.722-1.079l-.795-3.285a4.542,4.542,0,0,0-3.359-3.36l-3.285-.8a1.884,1.884,0,0,1-1.08-.722l-1.986-2.73a4.54,4.54,0,0,0-4.4-1.822l-3.337.525a1.885,1.885,0,0,1-1.272-.252L76.168.67a4.543,4.543,0,0,0-4.748,0L68.532,2.431a1.885,1.885,0,0,1-1.273.252l-3.336-.525a4.541,4.541,0,0,0-4.4,1.822L57.541,6.71a1.885,1.885,0,0,1-1.08.722l-3.285.795a4.542,4.542,0,0,0-3.36,3.359l-.8,3.285a1.883,1.883,0,0,1-.722,1.08l-2.73,1.986a4.541,4.541,0,0,0-1.822,4.4l.525,3.337a1.884,1.884,0,0,1-.252,1.272l-1.762,2.889a4.543,4.543,0,0,0,0,4.748l1.761,2.888a1.885,1.885,0,0,1,.252,1.273l-.525,3.336a4.541,4.541,0,0,0,1.822,4.4l2.73,1.985a1.884,1.884,0,0,1,.722,1.08l.795,3.285a4.542,4.542,0,0,0,3.359,3.36l1.372.332-9.284,20.71a1.339,1.339,0,0,0,1.38,1.877l7.47-.893,4.3,6.171a1.339,1.339,0,0,0,1.1.573c.042,0,.084,0,.126-.006a1.339,1.339,0,0,0,1.1-.785L70.218,63.01l1.2.733a4.543,4.543,0,0,0,4.748,0l1.245-.759,9.494,21.178a1.338,1.338,0,0,0,1.1.785c.042,0,.084.006.126.006a1.339,1.339,0,0,0,1.1-.573l4.3-6.171L101,79.1a1.339,1.339,0,0,0,1.38-1.877L93.091,56.5l1.32-.319a4.542,4.542,0,0,0,3.36-3.359l.8-3.285a1.884,1.884,0,0,1,.722-1.08l2.73-1.986a4.541,4.541,0,0,0,1.822-4.4l-.525-3.337a1.885,1.885,0,0,1,.252-1.272ZM59.26,80.909l-3.41-4.89a1.338,1.338,0,0,0-1.257-.563l-5.92.708,8.459-18.869a1.872,1.872,0,0,1,.408.407l1.986,2.73a4.6,4.6,0,0,0,.632.7L55.7,71.067a1.339,1.339,0,1,0,2.443,1.1l4.436-9.9a4.582,4.582,0,0,0,1.337-.012l3.337-.525a1.88,1.88,0,0,1,.6,0Zm39.71-4.746-5.92-.707a1.338,1.338,0,0,0-1.257.563l-3.41,4.89-8.6-19.184a1.885,1.885,0,0,1,.546,0l3.336.525a4.585,4.585,0,0,0,1.39,0l4.44,9.9a1.339,1.339,0,1,0,2.443-1.1L87.469,61.1a4.608,4.608,0,0,0,.593-.666l1.985-2.73a1.879,1.879,0,0,1,.451-.439Zm4.074-42.976-1.762,2.889a4.566,4.566,0,0,0-.611,3.083l.525,3.337a1.875,1.875,0,0,1-.752,1.815L97.714,46.3a4.565,4.565,0,0,0-1.75,2.615l-.8,3.285a1.875,1.875,0,0,1-1.387,1.387l-3.285.795a4.565,4.565,0,0,0-2.615,1.75L85.9,58.857a1.874,1.874,0,0,1-1.815.752l-3.336-.525a4.566,4.566,0,0,0-3.083.611l-2.888,1.761a1.876,1.876,0,0,1-1.96,0l-2.889-1.761a4.564,4.564,0,0,0-3.083-.611l-3.337.525a1.874,1.874,0,0,1-1.815-.752L59.7,56.126a4.565,4.565,0,0,0-2.615-1.75l-3.285-.8a1.875,1.875,0,0,1-1.387-1.387l-.795-3.285a4.565,4.565,0,0,0-1.75-2.615l-2.729-1.986a1.874,1.874,0,0,1-.752-1.815l.525-3.336a4.565,4.565,0,0,0-.611-3.083l-1.761-2.889a1.875,1.875,0,0,1,0-1.96l1.762-2.889a4.565,4.565,0,0,0,.611-3.083l-.525-3.337a1.875,1.875,0,0,1,.752-1.815l2.73-1.986a4.565,4.565,0,0,0,1.75-2.615l.8-3.285a1.875,1.875,0,0,1,1.387-1.387l3.285-.795a4.564,4.564,0,0,0,2.615-1.75l1.985-2.73A1.874,1.874,0,0,1,63.507,4.8l3.336.525a4.564,4.564,0,0,0,3.083-.611l2.888-1.761a1.876,1.876,0,0,1,1.96,0l2.889,1.761a4.563,4.563,0,0,0,3.083.611L84.082,4.8a1.876,1.876,0,0,1,1.815.752l1.986,2.73a4.565,4.565,0,0,0,2.615,1.75l3.285.8a1.875,1.875,0,0,1,1.387,1.387l.795,3.285a4.565,4.565,0,0,0,1.75,2.615l2.73,1.985a1.874,1.874,0,0,1,.752,1.815l-.525,3.336a4.565,4.565,0,0,0,.611,3.083l1.761,2.889A1.875,1.875,0,0,1,103.044,33.186Z" transform="translate(-41.588 0)"/>
      </g>
    </g>
    <g id="Group_80" data-name="Group 80" transform="translate(58.006 16.658)">
      <g id="Group_79" data-name="Group 79" transform="translate(0)">
        <path id="Path_72" data-name="Path 72" class="cls-1" d="M139.524,78.837a2.4,2.4,0,0,0-2.016-1.655l-8.056-.955-3.4-7.366a2.419,2.419,0,0,0-4.394,0l-3.4,7.366-8.056.955a2.419,2.419,0,0,0-1.358,4.178l5.956,5.508-1.581,7.957a2.427,2.427,0,0,0,2.37,2.895,2.421,2.421,0,0,0,1.185-.313l7.079-3.962,7.079,3.962a2.419,2.419,0,0,0,3.554-2.582l-1.581-7.957,5.956-5.508A2.4,2.4,0,0,0,139.524,78.837Zm-8.982,6.574a1.339,1.339,0,0,0-.4,1.244l1.618,8.142-7.244-4.055a1.339,1.339,0,0,0-1.308,0L115.96,94.8l1.618-8.142a1.338,1.338,0,0,0-.4-1.244l-6.095-5.636,8.244-.977a1.339,1.339,0,0,0,1.058-.769l3.477-7.538,3.477,7.538a1.339,1.339,0,0,0,1.058.769l8.244.977Z" transform="translate(-108.071 -67.455)"/>
      </g>
    </g>
  </g>
</svg>
