<svg xmlns="http://www.w3.org/2000/svg" viewBox="0 0 79 79">
  <defs>
    <style>
      .cls-1 {
        fill: #fff;
      }
    </style>
  </defs>
  <g id="power" transform="translate(0 0)">
    <path id="Path_91" data-name="Path 91" class="cls-1" d="M179.505,96.085a1.543,1.543,0,0,0-1.388-.869h-16.59l3.8-20.6a1.543,1.543,0,0,0-2.862-1.038l-16.674,29.56a1.543,1.543,0,0,0,1.344,2.3h14.13l-6.083,18.121A1.543,1.543,0,0,0,157.854,125L179.33,97.714a1.543,1.543,0,0,0,.175-1.629ZM160.94,116.092l3.93-11.708a1.543,1.543,0,0,0-1.463-2.034H149.773l10.844-19.224-2.46,13.354a1.543,1.543,0,0,0,1.518,1.823H174.94Zm0,0" transform="translate(-123.125 -61.558)"/>
    <path id="Path_92" data-name="Path 92" class="cls-1" d="M9.281,47.832h-6.2V31.168h6.2A1.543,1.543,0,0,0,10.747,30.1,30.338,30.338,0,0,1,30.1,10.748a1.543,1.543,0,0,0,1.064-1.466v-6.2H47.831v6.2A1.543,1.543,0,0,0,48.9,10.748a30.066,30.066,0,0,1,7.23,3.489,6.489,6.489,0,1,0,1.967-2.4,33.17,33.17,0,0,0-7.175-3.657V1.543A1.543,1.543,0,0,0,49.374,0H29.624a1.543,1.543,0,0,0-1.543,1.543V8.182a33.45,33.45,0,0,0-19.9,19.9H1.542A1.543,1.543,0,0,0,0,29.625v19.75a1.543,1.543,0,0,0,1.543,1.543H9.281a1.543,1.543,0,1,0,0-3.086ZM65.368,17.027a3.395,3.395,0,1,1-3.395-3.395A3.4,3.4,0,0,1,65.368,17.027Zm0,0" transform="translate(0)"/>
    <path id="Path_93" data-name="Path 93" class="cls-1" d="M135.259,182h-7.738a1.543,1.543,0,0,0,0,3.086h6.2V201.75h-6.2a1.543,1.543,0,0,0-1.466,1.064A30.338,30.338,0,0,1,106.7,222.17a1.543,1.543,0,0,0-1.064,1.466v6.2H88.97v-6.2a1.543,1.543,0,0,0-1.064-1.466,30.064,30.064,0,0,1-7.229-3.49,6.491,6.491,0,1,0-1.965,2.4,33.2,33.2,0,0,0,7.172,3.66v6.639a1.543,1.543,0,0,0,1.543,1.543h19.75a1.543,1.543,0,0,0,1.543-1.543v-6.639a33.45,33.45,0,0,0,19.9-19.9h6.639a1.543,1.543,0,0,0,1.543-1.543v-19.75A1.543,1.543,0,0,0,135.259,182ZM74.828,219.286a3.395,3.395,0,1,1,3.395-3.395A3.4,3.4,0,0,1,74.828,219.286Zm0,0" transform="translate(-57.802 -153.917)"/>
    <path id="Path_94" data-name="Path 94" class="cls-1" d="M342.99,321.643a1.537,1.537,0,0,0,.913-.3,18.727,18.727,0,0,0,6.756-9.323,1.543,1.543,0,0,0-2.933-.958,15.652,15.652,0,0,1-5.65,7.795,1.543,1.543,0,0,0,.915,2.786Zm0,0" transform="translate(-288.762 -262.166)"/>
    <path id="Path_95" data-name="Path 95" class="cls-1" d="M311.075,381.69l-.029.01a1.543,1.543,0,1,0,.972,2.929l.016,0a1.543,1.543,0,0,0-.96-2.933Zm0,0" transform="translate(-262.159 -322.733)"/>
  </g>
</svg>
