<svg xmlns="http://www.w3.org/2000/svg" xmlns:xlink="http://www.w3.org/1999/xlink" viewBox="0 0 82.333 82.333">
  <defs>
    <style>
      .cls-1 {
        fill: url(#linear-gradient);
      }

      .cls-2 {
        fill: #fff;
      }
    </style>
    <linearGradient id="linear-gradient" x1="0.5" x2="0.5" y2="1.194" gradientUnits="objectBoundingBox">
      <stop offset="0" stop-color="#0d87c4"/>
      <stop offset="1" stop-color="#0d4788"/>
      <stop offset="1" stop-color="#0d4081"/>
    </linearGradient>
  </defs>
  <g id="jakosc-konstrukcji" transform="translate(-625 -994)">
    <circle id="Ellipse_3" data-name="Ellipse 3" class="cls-1" cx="41.167" cy="41.167" r="41.167" transform="translate(625 994)"/>
    <g id="innovation" transform="translate(647.382 1012.385)">
      <g id="Group_82" data-name="Group 82" transform="translate(8.573 8.573)">
        <g id="Group_81" data-name="Group 81">
          <path id="Path_73" data-name="Path 73" class="cls-2" d="M165.367,103.163h-2.039a7.092,7.092,0,0,0-.474-1.145l1.442-1.442a.954.954,0,0,0,0-1.349l-1.7-1.7a.955.955,0,0,0-1.349,0l-1.442,1.442a7.09,7.09,0,0,0-1.145-.474V96.459a.955.955,0,0,0-.954-.954h-2.4a.955.955,0,0,0-.954.954V98.5a7.1,7.1,0,0,0-1.145.474l-1.442-1.442a.955.955,0,0,0-1.349,0l-1.7,1.7a.954.954,0,0,0,0,1.349l1.442,1.442a7.088,7.088,0,0,0-.474,1.145h-2.039a.955.955,0,0,0-.954.954v2.4a.955.955,0,0,0,.954.954h2.039a7.093,7.093,0,0,0,.474,1.145l-1.442,1.442a.955.955,0,0,0,0,1.349l1.7,1.7a.955.955,0,0,0,1.349,0l1.442-1.442a7.087,7.087,0,0,0,1.145.474v2.039a.955.955,0,0,0,.954.954h2.4a.955.955,0,0,0,.954-.954v-2.039a7.09,7.09,0,0,0,1.145-.474l1.442,1.442a.955.955,0,0,0,1.349,0l1.7-1.7a.954.954,0,0,0,0-1.349l-1.442-1.442a7.086,7.086,0,0,0,.474-1.145h2.039a.955.955,0,0,0,.954-.954v-2.4A.955.955,0,0,0,165.367,103.163Zm-.392,2.961h-2.16a.673.673,0,0,0-.656.52,5.758,5.758,0,0,1-.716,1.73.673.673,0,0,0,.1.831l1.527,1.527-1.142,1.142-1.527-1.527a.673.673,0,0,0-.831-.1,5.762,5.762,0,0,1-1.729.716.673.673,0,0,0-.52.656v2.16H155.7v-2.16a.673.673,0,0,0-.52-.656,5.754,5.754,0,0,1-1.73-.716.674.674,0,0,0-.831.1l-1.527,1.527-1.142-1.142,1.527-1.527a.673.673,0,0,0,.1-.831,5.759,5.759,0,0,1-.716-1.73.673.673,0,0,0-.656-.52h-2.16V104.51h2.16a.673.673,0,0,0,.656-.52,5.759,5.759,0,0,1,.716-1.73.673.673,0,0,0-.1-.831L149.952,99.9l1.142-1.142,1.527,1.527a.673.673,0,0,0,.831.1,5.757,5.757,0,0,1,1.73-.716.673.673,0,0,0,.52-.656v-2.16h1.614v2.16a.673.673,0,0,0,.52.656,5.76,5.76,0,0,1,1.73.716.674.674,0,0,0,.831-.1l1.527-1.527,1.142,1.142-1.527,1.527a.673.673,0,0,0-.1.831,5.76,5.76,0,0,1,.716,1.73.673.673,0,0,0,.656.52h2.16Z" transform="translate(-146.697 -95.505)"/>
        </g>
      </g>
      <g id="Group_84" data-name="Group 84" transform="translate(14.778 14.778)">
        <g id="Group_83" data-name="Group 83" transform="translate(0)">
          <path id="Path_74" data-name="Path 74" class="cls-2" d="M219.427,164.628a3.607,3.607,0,1,0,3.607,3.607A3.611,3.611,0,0,0,219.427,164.628Zm0,5.867a2.26,2.26,0,1,1,2.26-2.26A2.263,2.263,0,0,1,219.427,170.5Z" transform="translate(-215.82 -164.628)"/>
        </g>
      </g>
      <g id="Group_86" data-name="Group 86" transform="translate(0 17.712)">
        <g id="Group_85" data-name="Group 85" transform="translate(0)">
          <path id="Path_75" data-name="Path 75" class="cls-2" d="M54.1,197.308H51.865a.673.673,0,0,0,0,1.347H54.1a.673.673,0,0,0,0-1.347Z" transform="translate(-51.192 -197.308)"/>
        </g>
      </g>
      <g id="Group_88" data-name="Group 88" transform="translate(33.19 17.712)">
        <g id="Group_87" data-name="Group 87" transform="translate(0)">
          <path id="Path_76" data-name="Path 76" class="cls-2" d="M423.834,197.308H421.6a.673.673,0,1,0,0,1.347h2.234a.673.673,0,0,0,0-1.347Z" transform="translate(-420.927 -197.308)"/>
        </g>
      </g>
      <g id="Group_90" data-name="Group 90" transform="translate(5.188 28.657)">
        <g id="Group_89" data-name="Group 89" transform="translate(0)">
          <path id="Path_77" data-name="Path 77" class="cls-2" d="M111.71,319.429a.673.673,0,0,0-.952,0l-1.579,1.579a.673.673,0,0,0,.952.952l1.579-1.579A.673.673,0,0,0,111.71,319.429Z" transform="translate(-108.981 -319.232)"/>
        </g>
      </g>
      <g id="Group_92" data-name="Group 92" transform="translate(28.656 5.188)">
        <g id="Group_91" data-name="Group 91">
          <path id="Path_78" data-name="Path 78" class="cls-2" d="M373.152,57.988a.673.673,0,0,0-.952,0l-1.579,1.579a.673.673,0,0,0,.952.952l1.579-1.579A.673.673,0,0,0,373.152,57.988Z" transform="translate(-370.423 -57.791)"/>
        </g>
      </g>
      <g id="Group_94" data-name="Group 94" transform="translate(17.712)">
        <g id="Group_93" data-name="Group 93" transform="translate(0)">
          <path id="Path_79" data-name="Path 79" class="cls-2" d="M249.174,0a.673.673,0,0,0-.673.673V2.907a.673.673,0,1,0,1.346,0V.673A.673.673,0,0,0,249.174,0Z" transform="translate(-248.501)"/>
        </g>
      </g>
      <g id="Group_96" data-name="Group 96" transform="translate(28.656 28.657)">
        <g id="Group_95" data-name="Group 95">
          <path id="Path_80" data-name="Path 80" class="cls-2" d="M373.152,321.009l-1.579-1.579a.673.673,0,1,0-.952.952l1.579,1.579a.673.673,0,0,0,.952-.952Z" transform="translate(-370.423 -319.232)"/>
        </g>
      </g>
      <g id="Group_98" data-name="Group 98" transform="translate(5.188 5.188)">
        <g id="Group_97" data-name="Group 97" transform="translate(0)">
          <path id="Path_81" data-name="Path 81" class="cls-2" d="M111.71,59.568l-1.579-1.579a.673.673,0,1,0-.952.952l1.579,1.579a.673.673,0,0,0,.952-.952Z" transform="translate(-108.981 -57.791)"/>
        </g>
      </g>
      <g id="Group_100" data-name="Group 100" transform="translate(19.283 4.896)">
        <g id="Group_99" data-name="Group 99" transform="translate(0)">
          <path id="Path_82" data-name="Path 82" class="cls-2" d="M278.533,66.385A13.54,13.54,0,0,0,266.754,54.55a.673.673,0,1,0-.163,1.337,12.126,12.126,0,0,1,10.6,10.654.673.673,0,0,0,.668.595.694.694,0,0,0,.079,0A.673.673,0,0,0,278.533,66.385Z" transform="translate(-265.999 -54.545)"/>
        </g>
      </g>
      <g id="Group_102" data-name="Group 102" transform="translate(4.86 4.897)">
        <g id="Group_101" data-name="Group 101" transform="translate(0)">
          <path id="Path_83" data-name="Path 83" class="cls-2" d="M131.687,68.947a.673.673,0,0,0-.753.583,12.132,12.132,0,0,1-5.614,8.777,4.529,4.529,0,0,0-2.14,3.853V84.93h-8.652V82.1a4.434,4.434,0,0,0-2.074-3.75,12.18,12.18,0,0,1,4.912-22.45.673.673,0,0,0-.166-1.336,13.525,13.525,0,0,0-5.455,24.931,3.078,3.078,0,0,1,1.436,2.605v2.93A1.752,1.752,0,0,0,112,86.681v.96a1.741,1.741,0,0,0,.374,1.077A1.74,1.74,0,0,0,112,89.795v.96a1.753,1.753,0,0,0,1.751,1.751h2.117v1.522a1.594,1.594,0,0,0,1.592,1.592h2.783a1.594,1.594,0,0,0,1.592-1.592V92.505h2.117a1.753,1.753,0,0,0,1.751-1.751v-.96a1.74,1.74,0,0,0-.374-1.077,1.74,1.74,0,0,0,.374-1.077v-.96a1.752,1.752,0,0,0-1.178-1.653V82.159a3.19,3.19,0,0,1,1.51-2.712A13.474,13.474,0,0,0,132.27,69.7.673.673,0,0,0,131.687,68.947Zm-11.2,25.08a.249.249,0,0,1-.246.246h-2.783a.249.249,0,0,1-.246-.246V92.505h3.274Zm3.867-3.273a.409.409,0,0,1-.4.4h-10.2a.409.409,0,0,1-.4-.4v-.96a.409.409,0,0,1,.4-.4h10.2a.409.409,0,0,1,.4.4Zm0-3.114a.409.409,0,0,1-.4.4h-10.2a.409.409,0,0,1-.4-.4v-.96a.409.409,0,0,1,.4-.4h10.2a.409.409,0,0,1,.4.4v.96Z" transform="translate(-105.328 -54.556)"/>
        </g>
      </g>
    </g>
  </g>
</svg>
