<svg id="piggy-bank" xmlns="http://www.w3.org/2000/svg" xmlns:xlink="http://www.w3.org/1999/xlink" viewBox="0 0 57 55.861">
  <defs>
    <style>
      .cls-1 {
        fill: url(#linear-gradient);
      }
    </style>
    <linearGradient id="linear-gradient" x1="0.5" x2="0.5" y2="1" gradientUnits="objectBoundingBox">
      <stop offset="0" stop-color="#b8be00"/>
      <stop offset="1" stop-color="#647c2b"/>
    </linearGradient>
  </defs>
  <g id="Group_40" data-name="Group 40" transform="translate(42.441 29.557)">
    <g id="Group_39" data-name="Group 39">
      <path id="Path_21" data-name="Path 21" class="cls-1" d="M385.823,270.613a.83.83,0,0,0-.829.829,1.053,1.053,0,1,1-2.107,0,.829.829,0,1,0-1.659,0,2.712,2.712,0,1,0,5.425,0A.829.829,0,0,0,385.823,270.613Z" transform="translate(-381.228 -270.613)"/>
    </g>
  </g>
  <g id="Group_42" data-name="Group 42" transform="translate(0 0)">
    <g id="Group_41" data-name="Group 41">
      <path id="Path_22" data-name="Path 22" class="cls-1" d="M54.823,34.808l-2.335-.748a.977.977,0,0,1-.63-.639,15.053,15.053,0,0,0-2.207-4.366,16.019,16.019,0,0,0-1.474-1.739,20.576,20.576,0,0,0,.507-4.7c-.035-2.114-.457-3.353-1.291-3.79-.449-.236-1.816-.951-9.216,2.436a2.692,2.692,0,0,0-.49.292c-.5-.134-1.009-.258-1.522-.369l-.188-.039a11.3,11.3,0,0,0,1.016-4.2.83.83,0,0,0-1.657-.074A9.652,9.652,0,0,1,29.02,25.5a24.056,24.056,0,0,0-6.677,0,9.659,9.659,0,1,1,11.973-13.41.83.83,0,0,0,1.482-.746A11.323,11.323,0,1,0,19.673,26.035h0q-.774.2-1.534.454a.83.83,0,0,0,.526,1.574,22.262,22.262,0,0,1,14.031,0,.83.83,0,0,0,.526-1.574q-.759-.254-1.534-.454h0a11.311,11.311,0,0,0,3.443-3.367c.229.044.456.091.679.139q.447.1.888.207c-.009.036-.019.072-.026.109a9.893,9.893,0,0,0,.078,5.047,6.006,6.006,0,0,0,2.2,3.092,6.978,6.978,0,0,0,4.083,1.3,5.474,5.474,0,0,0,2.646-.612,5.051,5.051,0,0,0,1.95-2.769q.359.418.679.857a13.394,13.394,0,0,1,1.965,3.885,2.638,2.638,0,0,0,1.707,1.721l2.335.748a1.469,1.469,0,0,1,1.024,1.4v3.871a1.469,1.469,0,0,1-1.024,1.4l-3.762,1.2a2.563,2.563,0,0,0-1.434,1.165,16.534,16.534,0,0,1-6.906,6.282,1.3,1.3,0,0,0-.682.916l-1.2,6.379a.373.373,0,0,1-.366.3H36.044a.373.373,0,0,1-.366-.3l-.667-3.526a1.3,1.3,0,0,0-1.482-1.048,34.678,34.678,0,0,1-5.168.384,33.073,33.073,0,0,1-3.8-.215,1.314,1.314,0,0,0-1.437,1.054l-.634,3.35a.373.373,0,0,1-.366.3H18.2a.374.374,0,0,1-.367-.306l-1.16-6.025a1.3,1.3,0,0,0-.669-.906A14.65,14.65,0,0,1,7.918,38.428a15.947,15.947,0,0,1,2.006-8.107,14.473,14.473,0,0,1,5.392-5.264.83.83,0,0,0-.831-1.436A15.79,15.79,0,0,0,6.472,35.416h0l-.239-.022a4.13,4.13,0,0,0-.3-1.655,3.4,3.4,0,0,0-2.519-2.2,2.293,2.293,0,0,0-2.159.961,2.185,2.185,0,0,0-.415,2.384c.418.861,1.492,1.47,3.274,1.853q-.073.11-.162.221a4.07,4.07,0,0,1-3.1,1.64A.871.871,0,0,0,0,39.464v0a.869.869,0,0,0,.832.866q.089,0,.187,0a5.388,5.388,0,0,0,4.227-2.347,4.731,4.731,0,0,0,.606-.978q.235.027.451.046h0c-.028.45-.044.906-.044,1.37a17.1,17.1,0,0,0,2.447,9.155,16.771,16.771,0,0,0,6.374,5.881l1.128,5.858a2.033,2.033,0,0,0,2,1.654h3.917a2.033,2.033,0,0,0,2-1.654l.573-3.029a34.958,34.958,0,0,0,3.67.19,36.443,36.443,0,0,0,5.083-.354l.6,3.193a2.033,2.033,0,0,0,2,1.654h3.917a2.034,2.034,0,0,0,2-1.654l1.173-6.211a18.086,18.086,0,0,0,7.426-6.844.907.907,0,0,1,.5-.415l3.762-1.2A3.123,3.123,0,0,0,57,41.663V37.791A3.123,3.123,0,0,0,54.823,34.808ZM46.9,24.949c-.319,2.73-1.176,5.066-2.036,5.553a5.076,5.076,0,0,1-4.932-.579c-1.7-1.242-2.263-3.475-1.634-6.458h0a1,1,0,0,1,.569-.693c4.153-1.9,6.547-2.523,7.437-2.523a.868.868,0,0,1,.3.04C46.872,20.575,47.222,22.193,46.9,24.949ZM2.329,34.159c-.086-.177.117-.488.245-.658a.662.662,0,0,1,.533-.324.623.623,0,0,1,.083.006,1.808,1.808,0,0,1,1.2,1.174,2.519,2.519,0,0,1,.174.782C3.415,34.9,2.523,34.559,2.329,34.159Z" transform="translate(0 -5.115)"/>
    </g>
  </g>
  <g id="Group_44" data-name="Group 44" transform="translate(22.582 5.326)">
    <g id="Group_43" data-name="Group 43">
      <path id="Path_23" data-name="Path 23" class="cls-1" d="M206.75,58V55.036c1.024.073,1.4.541,1.755.541.439,0,.643-.556.643-.834,0-.717-1.4-1.024-2.4-1.053V53.3c0-.175-.219-.336-.439-.336a.386.386,0,0,0-.424.336v.424c-1.389.146-2.779.877-2.779,2.72,0,1.872,1.462,2.4,2.779,2.866v3.437C204.4,62.625,204,61.6,203.518,61.6c-.366,0-.673.483-.673.834,0,.717,1.228,1.7,3.042,1.726h0v.453a.386.386,0,0,0,.424.336c.219,0,.439-.161.439-.336v-.5a2.833,2.833,0,0,0,2.662-3.013C209.411,59.116,208.022,58.472,206.75,58Zm-.775-.278c-.775-.292-1.4-.6-1.4-1.433,0-.76.585-1.126,1.4-1.228Zm.687,4.987V59.627a1.71,1.71,0,0,1,1.287,1.638A1.391,1.391,0,0,1,206.662,62.713Z" transform="translate(-202.845 -52.959)"/>
    </g>
  </g>
</svg>
