<svg xmlns="http://www.w3.org/2000/svg" xmlns:xlink="http://www.w3.org/1999/xlink" viewBox="0 0 60.333 73.549">
  <defs>
    <style>
      .cls-1 {
        fill: url(#linear-gradient);
      }
    </style>
    <linearGradient id="linear-gradient" x1="0.5" x2="0.5" y2="1" gradientUnits="objectBoundingBox">
      <stop offset="0" stop-color="#0d87c4"/>
      <stop offset="1" stop-color="#0d4081"/>
    </linearGradient>
  </defs>
  <g id="worker" transform="translate(-46)">
    <g id="Group_12" data-name="Group 12" transform="translate(89.095 61.626)">
      <g id="Group_11" data-name="Group 11">
        <path id="Path_9" data-name="Path 9" class="cls-1" d="M347.437,429a1.436,1.436,0,1,0,1.436,1.437A1.437,1.437,0,0,0,347.437,429Z" transform="translate(-346 -429)"/>
      </g>
    </g>
    <g id="Group_14" data-name="Group 14" transform="translate(60.365 61.626)">
      <g id="Group_13" data-name="Group 13" transform="translate(0)">
        <path id="Path_10" data-name="Path 10" class="cls-1" d="M147.437,429a1.436,1.436,0,1,0,1.437,1.437A1.437,1.437,0,0,0,147.437,429Z" transform="translate(-146 -429)"/>
      </g>
    </g>
    <g id="Group_16" data-name="Group 16" transform="translate(46)">
      <g id="Group_15" data-name="Group 15">
        <path id="Path_11" data-name="Path 11" class="cls-1" d="M103.7,54.186a16.234,16.234,0,0,0-6.442-5.776,1.429,1.429,0,0,0-.816-.375,15.027,15.027,0,0,0-5.907-1.2h-4.31V43.04a16.478,16.478,0,0,0,5.156-8.133h.59a5.742,5.742,0,0,0,4.22-9.64c.09-.077.179-.157.263-.241a4.308,4.308,0,0,0-1.66-7.126A15.856,15.856,0,0,0,83.265,3.88,4.571,4.571,0,0,0,79.04,0H73.294a4.571,4.571,0,0,0-4.226,3.88A15.856,15.856,0,0,0,57.541,17.9a4.307,4.307,0,0,0-1.4,7.368,5.742,5.742,0,0,0,4.219,9.642h.586a16.512,16.512,0,0,0,4.021,7.058c.361.376.743.734,1.139,1.074V46.83H61.8a15.029,15.029,0,0,0-5.907,1.2,1.429,1.429,0,0,0-.816.375A16.459,16.459,0,0,0,46,63.063v9.05a1.437,1.437,0,0,0,1.437,1.437H104.9a1.437,1.437,0,0,0,1.437-1.437v-9.05A16.332,16.332,0,0,0,103.7,54.186ZM54.619,70.676H48.873V63.063a13.723,13.723,0,0,1,5.746-11.044ZM91.968,32.034H91.9c.043-.478.066-.958.066-1.437v-4.31a2.873,2.873,0,0,1,0,5.746ZM68.984,6.915V13.36a1.437,1.437,0,0,0,2.873,0V4.74c0-.89.752-1.867,1.437-1.867H79.04c.685,0,1.437.977,1.437,1.867V13.36a1.437,1.437,0,1,0,2.873,0V6.915a12.985,12.985,0,0,1,8.539,10.754H60.445A12.985,12.985,0,0,1,68.984,6.915ZM60.365,32.034a2.873,2.873,0,1,1,0-5.746V30.6c0,.479.023.959.066,1.437Zm0-8.619H58.929a1.437,1.437,0,0,1,0-2.873H93.4a1.437,1.437,0,0,1,0,2.873H60.365ZM63.5,33.21c0-.016-.006-.031-.009-.047a13.249,13.249,0,0,1-.252-2.565v-4.31H89.1V30.6a13.254,13.254,0,0,1-.252,2.565c0,.016-.006.031-.009.047a13.608,13.608,0,0,1-5.006,8.079,12.333,12.333,0,0,1-15.326,0,13.311,13.311,0,0,1-1.457-1.311A13.622,13.622,0,0,1,63.5,33.21ZM74.73,70.676H63.238v-3.3a1.437,1.437,0,1,0-2.873,0v3.3H57.492V50.489a12.159,12.159,0,0,1,2.873-.7v8.965a1.437,1.437,0,1,0,2.873,0V49.7h3.694l7.8,8.188ZM68.984,47.692V45.016a15.129,15.129,0,0,0,14.365,0v2.675l-7.183,7.542ZM94.841,70.676H91.968v-3.3a1.437,1.437,0,1,0-2.873,0v3.3H77.6V57.891L85.4,49.7H89.1v9.05a1.437,1.437,0,1,0,2.873,0V49.788a12.161,12.161,0,0,1,2.873.7Zm8.619,0H97.714V52.019a13.723,13.723,0,0,1,5.746,11.044Z" transform="translate(-46)"/>
      </g>
    </g>
  </g>
</svg>
