<svg xmlns="http://www.w3.org/2000/svg" xmlns:xlink="http://www.w3.org/1999/xlink" viewBox="0 0 81.333 81.333">
  <defs>
    <style>
      .cls-1 {
        fill: url(#linear-gradient);
      }

      .cls-2 {
        fill: #fff;
      }
    </style>
    <linearGradient id="linear-gradient" x1="0.5" x2="0.5" y2="1.194" gradientUnits="objectBoundingBox">
      <stop offset="0" stop-color="#0d87c4"/>
      <stop offset="1" stop-color="#0d4788"/>
      <stop offset="1" stop-color="#0d4081"/>
    </linearGradient>
  </defs>
  <g id="swiat" transform="translate(-625 -716)">
    <circle id="Ellipse_2" data-name="Ellipse 2" class="cls-1" cx="40.667" cy="40.667" r="40.667" transform="translate(625 716)"/>
    <g id="worldwide" transform="translate(645.531 736.531)">
      <g id="Group_105" data-name="Group 105" transform="translate(0 0)">
        <path id="Path_90" data-name="Path 90" class="cls-2" d="M20.011.05A20,20,0,0,0,1.623,12.178l-.249.083.1.29A20,20,0,1,0,20.011.05ZM35.7,30.134l-1.027-1.026V26.717a.666.666,0,0,0-.067-.3l-2.6-5.193V18.717a.667.667,0,0,0-.3-.555l-2-1.333a.667.667,0,0,0-.533-.092l-2.449.612-4.114-1.765-.566-3.965,1.569-1.568h3.367l1.133,1.7a.667.667,0,0,0,.445.287l4,.667a.661.661,0,0,0,.32-.025l3.684-1.228A18.6,18.6,0,0,1,35.7,30.134ZM32.95,6.619l-1.084.723-3.022-.6-1.961-.653a.655.655,0,0,0-.372-.015l-2.479.619-1.087-.362.805-1.611h2.255a.666.666,0,0,0,.3-.07L28.61,3.493A18.735,18.735,0,0,1,32.95,6.619ZM12.7,2.872l1.6,1.067a.666.666,0,0,0,.261.1l3.231.539-.315.943L15.8,6.085a.667.667,0,0,0-.361.289L13.521,9.565,10.445,11.41l-4.533.647a.667.667,0,0,0-.573.659v2a.667.667,0,0,0,.2.471l1.138,1.138v1.145L3.9,15.622,2.893,12.6A18.774,18.774,0,0,1,12.7,2.872Zm-1.9,21.858-3.013-.6-1.12-2.234V20.326l2.484-2.484.919,1.839a.667.667,0,0,0,.6.369h4.289l1.806,3.01a.667.667,0,0,0,.571.323h1.853l-.467,2.338L16.2,28.246a.667.667,0,0,0-.2.471v1.667l-2.4,1.8a.667.667,0,0,0-.267.533v2.408l-.829-.275-1.171-2.928V25.384A.667.667,0,0,0,10.805,24.73Zm-2,10.248A18.662,18.662,0,0,1,2.153,14.6l.554,1.661a.666.666,0,0,0,.262.344L6.292,18.82l-.758.759a.667.667,0,0,0-.2.471v2a.666.666,0,0,0,.07.3l1.333,2.667a.667.667,0,0,0,.467.355l2.8.559V32.05a.667.667,0,0,0,.047.247l1.333,3.333a.667.667,0,0,0,.409.385l2,.667a.655.655,0,0,0,.207.035.667.667,0,0,0,.667-.667v-3l2.4-1.8a.667.667,0,0,0,.267-.533V28.993l2.471-2.471a.667.667,0,0,0,.182-.341l.667-3.333a.667.667,0,0,0-.653-.8H17.716L15.91,19.04a.667.667,0,0,0-.571-.323H11.084l-1.145-2.3a.667.667,0,0,0-.49-.36.653.653,0,0,0-.578.187l-.865.862V16.05a.667.667,0,0,0-.2-.471L6.672,14.441V13.295l4.095-.585a.67.67,0,0,0,.249-.089l3.333-2a.666.666,0,0,0,.228-.228L16.45,7.271l1.766-.589a.66.66,0,0,0,.421-.421l.667-2a.667.667,0,0,0-.523-.867l-3.859-.643L14.245,2.3a18.615,18.615,0,0,1,12.821.477l-1.218.608H23.339a.667.667,0,0,0-.6.369L21.406,6.419a.667.667,0,0,0,.386.93l2,.667a.655.655,0,0,0,.372.015l2.479-.619,1.816.6a.49.49,0,0,0,.08.021l3.333.667a.662.662,0,0,0,.5-.1L33.89,7.593a18.808,18.808,0,0,1,2.005,2.679l-3.28,1.093-3.551-.592L27.89,9.013a.667.667,0,0,0-.551-.3h-4a.667.667,0,0,0-.471.2l-2,2a.667.667,0,0,0-.189.566l.667,4.667a.667.667,0,0,0,.4.518l4.667,2a.659.659,0,0,0,.424.034l2.381-.6,1.455.972v2.31a.666.666,0,0,0,.067.3l2.6,5.193v2.509a.667.667,0,0,0,.2.471l1.395,1.4A18.662,18.662,0,0,1,8.8,34.979Z" transform="translate(0 -0.05)"/>
      </g>
    </g>
  </g>
</svg>
